<svg xmlns="http://www.w3.org/2000/svg" xmlns:xlink="http://www.w3.org/1999/xlink" width="299.148" height="279.797" viewBox="0 0 299.148 279.797">
  <defs>
    <clipPath id="clip-path">
      <path id="Path_120" data-name="Path 120" d="M202.118,479.846h-91.57a8.707,8.707,0,0,1-8.707-8.707V280.717a8.707,8.707,0,0,1,8.707-8.707h91.57a8.707,8.707,0,0,1,8.707,8.707V471.136A8.71,8.71,0,0,1,202.118,479.846Z" transform="translate(-101.84 -272.01)"/>
    </clipPath>
  </defs>
  <g id="image" transform="translate(-53.223 -83)">
    <g id="Group_90" data-name="Group 90" transform="translate(88.291 115.554)">
      <path id="Path_110" data-name="Path 110" d="M340.8,190.27a55.632,55.632,0,0,1,23.01,5.173,43.541,43.541,0,0,1,13.416,9.515c7.4,7.951,10.326,19.589,5.274,28.323-4.217,7.29-13.5,12.515-13.6,20.906-.131,9.776,12.275,16.291,23.086,18.313s22.94,2.408,31.059,9.375c6.986,6,8.85,15.6,6.527,23.642s-8.2,14.734-14.746,20.454c-16.4,14.333-37.45,23.757-59.024,31.189a422.281,422.281,0,0,1-144.835,22.421c-12.436-.234-26.323-1.576-35.042-9.961-8.792-8.452-9.075-21.847-3.321-31.529s16.343-16.188,27.4-20.928,22.925-8.052,33.691-13.265c8.128-3.935,16.468-11.458,13.013-19.525-2.453-5.729-9.658-8.495-16-10.824-8.959-3.291-17.882-7.123-25.205-12.912S192.56,246.819,192,238.3c-.522-7.951,3.422-15.535,9.245-21.228s13.413-9.706,21.189-13.134C253.148,190.409,319.428,190.018,340.8,190.27Z" transform="translate(-168.726 -190.226)" fill="#ffe7bc"/>
    </g>
    <path id="Path_111" data-name="Path 111" d="M636.857,426.107c-4.654-6.024-11.777-24.92-7.393-32.316,2.192,6.024,5.477,13.146,5.477,13.146-1.916-11.5,6.846-21.635,10.954-23.277,6.3,4.654,10.408,16.7,10.408,16.7s-7.942,28.208-10.681,28.208S636.857,426.107,636.857,426.107Z" transform="translate(-400.336 -209.378)" fill="#fcd2b1"/>
    <path id="Path_112" data-name="Path 112" d="M349.657,966.153H56.325a2.883,2.883,0,0,1-2.875-2.875v-11a2.883,2.883,0,0,1,2.875-2.875H349.654a2.883,2.883,0,0,1,2.875,2.875v11A2.878,2.878,0,0,1,349.657,966.153Z" transform="translate(-0.158 -603.356)" fill="#f2f2f2"/>
    <g id="Group_91" data-name="Group 91" transform="translate(61.222 133.201)">
      <path id="Path_113" data-name="Path 113" d="M187.793,470.128H93.852A14.281,14.281,0,0,1,79.57,455.846V262.632A14.281,14.281,0,0,1,93.852,248.35h93.942a14.281,14.281,0,0,1,14.282,14.282V455.843A14.282,14.282,0,0,1,187.793,470.128Z" transform="translate(-79.57 -248.35)" fill="rgba(232,164,43,0.7)"/>
      <path id="Path_114" data-name="Path 114" d="M202.118,479.846h-91.57a8.707,8.707,0,0,1-8.707-8.707V280.717a8.707,8.707,0,0,1,8.707-8.707h91.57a8.707,8.707,0,0,1,8.707,8.707V471.136A8.71,8.71,0,0,1,202.118,479.846Z" transform="translate(-95.079 -264.827)" fill="#fff"/>
      <path id="Path_115" data-name="Path 115" d="M166.53,269.22l5.7,7.256a11.654,11.654,0,0,0,9.151,4.569h39.575a11.663,11.663,0,0,0,9.151-4.569l5.7-7.256Z" transform="translate(-140.128 -262.884)" fill="rgba(232,164,43,0.75)"/>
    </g>
    <g id="Group_92" data-name="Group 92" transform="translate(53.223 168.093)">
      <path id="Path_116" data-name="Path 116" d="M161.47,392.635c2.174-7.28-1.017-15.447-6.619-20.581s-13.216-7.59-20.767-8.443a40.255,40.255,0,0,0-17.715,1.542,24.578,24.578,0,0,0-13.638,11.012c-3.136,5.766-3.3,12.609-3.768,19.154s-1.5,13.507-5.86,18.411c-3.5,3.932-8.6,5.929-13.231,8.422A60.79,60.79,0,0,0,61.945,436.84c-3.965,4.785-7.241,10.326-8.346,16.44s.2,12.864,4.408,17.439c3.889,4.229,9.667,6.136,15.287,7.338,5.735,1.227,11.8,1.882,17.4.137,6.209-1.934,11.227-6.652,14.886-12.026s6.136-11.443,8.823-17.363c3.449-7.593,7.381-15.15,13.325-21,6.3-6.2,14.464-10.1,21.456-15.5s13.137-13.328,12.506-22.142" transform="translate(-53.223 -363.275)" fill="#0b4870"/>
    </g>
    <path id="Path_117" data-name="Path 117" d="M297.483,443.414c-1.643-15.062-2.739-17.527-15.885-24.647-10.344-5.6-69.116,1.785-34.833,49.776C275.626,461.554,297.483,443.414,297.483,443.414Z" transform="translate(-127.384 -232.711)" fill="#0b4870"/>
    <ellipse id="Ellipse_12" data-name="Ellipse 12" cx="4.108" cy="7.256" rx="4.108" ry="7.256" transform="translate(109.418 221.12) rotate(-27.741)" fill="#ffe3ca"/>
    <g id="Group_94" data-name="Group 94" transform="translate(67.984 140.384)">
      <g id="Group_93" data-name="Group 93" transform="translate(0 0)" clip-path="url(#clip-path)">
        <path id="Path_118" data-name="Path 118" d="M201.519,762.775c-.546,3.561-3.285,5.75-6.3,8.216-1.97,1.609-47.417,1.132-78.664.61-16.559-.276-29.128-.568-29.128-.568s-.006-.015-.015-.043a99.972,99.972,0,0,1-1.187-45.462c1.554-7.447,5.7-13.726,11.343-18.939,13.225-12.238,34.641-18.657,50-20.77,0,0,50.936,3.561,53.951,7.669S202.068,759.217,201.519,762.775Z" transform="translate(-89.546 -560.185)" fill="#d41953"/>
        <path id="Path_119" data-name="Path 119" d="M124.847,819.194c-4.1-.121-35.762-.516-37.425-.543a99.972,99.972,0,0,1-1.187-45.462c1.554-7.447,5.7-13.726,11.343-18.939C125.943,758.4,129.161,817.615,124.847,819.194Z" transform="translate(-89.553 -607.839)" fill="#df386c"/>
      </g>
    </g>
    <path id="Path_121" data-name="Path 121" d="M299.077,604.016c-1.369,6.573-3.835,18.074,0,24.373a30.773,30.773,0,0,1-9.038,13.419L269.5,629.486s14.239-22.731,9.038-31.766C280.181,593.339,299.077,604.016,299.077,604.016Z" transform="translate(-150.614 -357.713)" fill="#fcd2b1"/>
    <path id="Path_122" data-name="Path 122" d="M313.884,469.343c0,16.938-8.392,31.22-22.458,31.22s-30.947-14.005-30.947-30.947,13.869-30.947,27.935-30.947S313.884,452.405,313.884,469.343Z" transform="translate(-144.332 -247.687)" fill="#ffe3ca"/>
    <g id="Group_95" data-name="Group 95" transform="translate(110.949 186.178)">
      <path id="Path_123" data-name="Path 123" d="M304.456,456.347a41.631,41.631,0,0,0-14.5-27.6c-3.992-3.349-8.9-6-14.109-5.9-5.9.115-11.124,3.683-15.787,7.3-4.3,3.337-10.924,4.715-13.413,9.554s-5.049,23.144-1.643,27.385c8.383-2.635,19.595-19.929,21.064-28.591C266.059,438.495,289.734,458.041,304.456,456.347Z" transform="translate(-243.357 -422.841)" fill="#0b4870"/>
    </g>
    <circle id="Ellipse_13" data-name="Ellipse 13" cx="3.971" cy="3.971" r="3.971" transform="translate(113.959 230.422)" fill="#d41953"/>
    <path id="Path_124" data-name="Path 124" d="M437.077,569.559c19.419-2.93,44.342-31.411,56.392-59.619,4.654,1.369,13.966,3.835,13.966,3.835s-11.5,89.278-77.775,87.359C420.075,580.319,437.077,569.559,437.077,569.559Z" transform="translate(-260.108 -297.319)" fill="#d41953"/>
    <circle id="Ellipse_14" data-name="Ellipse 14" cx="2.125" cy="2.125" r="2.125" transform="translate(75.926 156.473)" fill="#fff"/>
    <g id="Group_96" data-name="Group 96" transform="translate(84.554 156.688)">
      <path id="Path_126" data-name="Path 126" d="M156.42,329.831V325.72h1.245v3.03h1.561v1.084H156.42Z" transform="translate(-156.42 -325.717)" fill="#fff"/>
      <path id="Path_127" data-name="Path 127" d="M168.32,329.831V325.72h1.245v4.111Z" transform="translate(-164.707 -325.717)" fill="#fff"/>
      <path id="Path_128" data-name="Path 128" d="M174.15,325.71h1.412l.89,2.769.887-2.769h1.412l-1.518,4.111h-1.567Z" transform="translate(-168.767 -325.71)" fill="#fff"/>
      <path id="Path_129" data-name="Path 129" d="M191.05,329.831V325.72h3.118V326.8h-1.876v.41h1.834V328.3h-1.834v.452h1.876v1.084H191.05Z" transform="translate(-180.536 -325.717)" fill="#fff"/>
    </g>
    <g id="Group_98" data-name="Group 98" transform="translate(72.456 333.475)">
      <path id="Path_130" data-name="Path 130" d="M211.447,918.323H121.731a5.176,5.176,0,0,1-5.161-5.161h0A5.176,5.176,0,0,1,121.731,908h89.715a5.176,5.176,0,0,1,5.161,5.161h0A5.176,5.176,0,0,1,211.447,918.323Z" transform="translate(-116.57 -908)" fill="none" stroke="#fff" stroke-miterlimit="10" stroke-width="1"/>
      <g id="Group_97" data-name="Group 97" transform="translate(85.444 4.25)">
        <circle id="Ellipse_15" data-name="Ellipse 15" cx="1.063" cy="1.063" r="1.063" fill="#fff"/>
        <circle id="Ellipse_16" data-name="Ellipse 16" cx="1.063" cy="1.063" r="1.063" transform="translate(3.643)" fill="#fff"/>
        <circle id="Ellipse_17" data-name="Ellipse 17" cx="1.063" cy="1.063" r="1.063" transform="translate(7.287)" fill="#fff"/>
      </g>
    </g>
    <g id="Group_100" data-name="Group 100" transform="translate(197.672 86.036)">
      <circle id="Ellipse_18" data-name="Ellipse 18" cx="37.343" cy="37.343" r="37.343" transform="translate(0 0)" fill="rgba(212,25,83,0.6)"/>
      <g id="Group_99" data-name="Group 99" transform="translate(16.338 9.724)">
        <path id="Path_131" data-name="Path 131" d="M626.491,152.045c6.142,0,11.121-6.048,11.121-13.507s-1.633-13.507-11.121-13.507-11.121,6.048-11.121,13.507S620.349,152.045,626.491,152.045Z" transform="translate(-605.485 -125.03)" fill="#fff"/>
        <path id="Path_132" data-name="Path 132" d="M582.815,281.4c0-.455,0-.128,0,0Z" transform="translate(-582.813 -233.765)" fill="#fff"/>
        <path id="Path_133" data-name="Path 133" d="M721.18,282.161c.006-.124,0-.865,0,0Z" transform="translate(-679.171 -234.167)" fill="#fff"/>
        <path id="Path_134" data-name="Path 134" d="M624.8,236.462c-.206-12.994-1.9-16.7-14.889-19.042,0,0-1.828,2.329-6.09,2.329s-6.09-2.329-6.09-2.329c-12.846,2.32-14.646,5.966-14.883,18.62-.018,1.032-.027,1.087-.03.969,0,.225,0,.641,0,1.366,0,0,3.091,6.233,21,6.233s21-6.233,21-6.233v-1.011C624.821,237.437,624.815,237.294,624.8,236.462Z" transform="translate(-582.818 -189.37)" fill="#fff"/>
      </g>
    </g>
    <g id="Group_102" data-name="Group 102" transform="translate(282.985 167.706)">
      <circle id="Ellipse_19" data-name="Ellipse 19" cx="29.146" cy="29.146" r="29.146" transform="translate(0 0)" fill="rgba(212,25,83,0.6)"/>
      <g id="Group_101" data-name="Group 101" transform="translate(12.752 7.593)">
        <path id="Path_135" data-name="Path 135" d="M886.09,408.092c4.794,0,8.68-4.721,8.68-10.541s-1.275-10.541-8.68-10.541-8.68,4.721-8.68,10.541S881.3,408.092,886.09,408.092Z" transform="translate(-869.696 -387.01)" fill="#fff"/>
        <path id="Path_136" data-name="Path 136" d="M852,509.041c0-.355,0-.1,0,0Z" transform="translate(-852.002 -471.865)" fill="#fff"/>
        <path id="Path_137" data-name="Path 137" d="M959.99,509.641c.006-.1,0-.674,0,0Z" transform="translate(-927.204 -472.185)" fill="#fff"/>
        <path id="Path_138" data-name="Path 138" d="M884.775,473.971c-.161-10.143-1.485-13.031-11.622-14.861a7.116,7.116,0,0,1-9.5,0c-10.025,1.809-11.431,4.657-11.616,14.531-.015.808-.021.85-.024.756v1.066s2.414,4.864,16.392,4.864,16.392-4.864,16.392-4.864v-.789A5.647,5.647,0,0,1,884.775,473.971Z" transform="translate(-852.008 -437.22)" fill="#fff"/>
      </g>
    </g>
    <g id="Group_104" data-name="Group 104" transform="translate(238.658 238.446)">
      <circle id="Ellipse_20" data-name="Ellipse 20" cx="31.423" cy="31.423" r="31.423" fill="rgba(212,25,83,0.7)"/>
      <g id="Group_103" data-name="Group 103" transform="translate(13.744 8.188)">
        <path id="Path_139" data-name="Path 139" d="M746.037,644.7c5.167,0,9.357-5.088,9.357-11.364s-1.375-11.364-9.357-11.364-9.357,5.088-9.357,11.364S740.87,644.7,746.037,644.7Z" transform="translate(-728.358 -621.97)" fill="#fff"/>
        <path id="Path_140" data-name="Path 140" d="M709.285,753.53c0-.383,0-.106,0,0Z" transform="translate(-709.279 -713.451)" fill="#fff"/>
        <path id="Path_141" data-name="Path 141" d="M825.71,754.17c.006-.106,0-.729,0,0Z" transform="translate(-790.358 -713.79)" fill="#fff"/>
        <path id="Path_142" data-name="Path 142" d="M744.6,715.721c-.173-10.936-1.6-14.051-12.53-16.021a7.676,7.676,0,0,1-10.25,0c-10.808,1.952-12.323,5.022-12.524,15.666-.015.868-.024.914-.027.814v1.148s2.6,5.246,17.673,5.246,17.673-5.246,17.673-5.246v-.85C744.619,716.541,744.613,716.423,744.6,715.721Z" transform="translate(-709.27 -676.101)" fill="#fff"/>
      </g>
    </g>
    <g id="Group_106" data-name="Group 106" transform="translate(254.136 83)">
      <path id="Path_143" data-name="Path 143" d="M769.811,83H724.753c-5.374,0-9.773,4.861-9.773,10.805h0c0,5.428,3.671,9.952,8.4,10.7l.131,4.748,4.715-4.639h41.582c5.374,0,9.773-4.861,9.773-10.805h0C779.584,87.861,775.185,83,769.811,83Z" transform="translate(-714.98 -83)" fill="#d41953"/>
      <g id="Group_105" data-name="Group 105" transform="translate(17.287 7.736)">
        <circle id="Ellipse_21" data-name="Ellipse 21" cx="3.413" cy="3.413" r="3.413" fill="#fff"/>
        <circle id="Ellipse_22" data-name="Ellipse 22" cx="3.413" cy="3.413" r="3.413" transform="translate(11.601)" fill="#fff"/>
        <circle id="Ellipse_23" data-name="Ellipse 23" cx="3.413" cy="3.413" r="3.413" transform="translate(23.205)" fill="#fff"/>
      </g>
    </g>
  </g>
</svg>
