<svg xmlns="http://www.w3.org/2000/svg" width="317.3" height="286.441" viewBox="0 0 317.3 286.441">
  <g id="image" transform="translate(-34.3 -118.24)">
    <g id="Group_49" data-name="Group 49" transform="translate(64.346 125.308)">
      <circle id="Ellipse_1" data-name="Ellipse 1" cx="27.429" cy="27.429" r="27.429" fill="none" stroke="#d3d3d3" stroke-miterlimit="10" stroke-width="1" stroke-dasharray="12.168 12.168"/>
    </g>
    <g id="Group_50" data-name="Group 50" transform="translate(45.945 118.24)">
      <path id="Path_1" data-name="Path 1" d="M141.755,136.175c-8.5,3.663-16.962,8.127-22.9,15.177s-8.928,17.116-5.357,25.582c4.772,11.3,19.887,17.855,19.949,30.108.062,8.774-8.158,15.454-16.439,18.625s-17.424,4.341-24.967,8.989c-11.36,7.019-16.685,20.626-18.871,33.679-2.278,13.545-1.355,28.969,8.373,38.789,12.068,12.222,32.047,10.836,49.164,8.22,22.812-3.479,45.531-7.573,68.25-11.637q74.715-13.438,149.4-26.844c5.326-.954,10.9-2,15.239-5.233,8.62-6.372,9.359-19.579,4.341-28.969s-14.284-15.823-23.489-21.365-18.933-10.775-25.8-18.933c-6.9-8.158-10.313-20.256-5.11-29.584,4.433-7.881,13.915-12.1,18.04-20.133,5.449-10.59-.831-24.074-10.713-30.846C310.98,115.088,186.7,116.811,141.755,136.175Z" transform="translate(-72.129 -118.24)" fill="#ffe7bc"/>
    </g>
    <g id="Group_60" data-name="Group 60" transform="translate(222.15 216.616)">
      <g id="Group_51" data-name="Group 51" transform="translate(60.923 68.127)">
        <path id="Path_2" data-name="Path 2" d="M892.364,659.1A35.445,35.445,0,1,1,842.4,702.969Z" transform="translate(-842.4 -659.1)" fill="#e8a42b"/>
      </g>
      <g id="Group_52" data-name="Group 52">
        <circle id="Ellipse_2" data-name="Ellipse 2" cx="56.09" cy="56.09" r="56.09" fill="#ffba3f"/>
      </g>
      <g id="Group_59" data-name="Group 59" transform="translate(39.128 54.797)">
        <g id="Group_53" data-name="Group 53" transform="translate(15.67)">
          <path id="Path_3" data-name="Path 3" d="M823.793,727.949a1.3,1.3,0,0,1-1.293-1.293V617.093a1.293,1.293,0,0,1,2.586,0V726.687A1.3,1.3,0,0,1,823.793,727.949Z" transform="translate(-822.5 -615.8)" fill="#cef"/>
        </g>
        <g id="Group_54" data-name="Group 54" transform="translate(0 13.361)">
          <path id="Path_4" data-name="Path 4" d="M788.563,677.455a1.233,1.233,0,0,1-.893-.369l-15.7-15.7a1.284,1.284,0,0,1,1.816-1.816l15.7,15.7a1.278,1.278,0,0,1-.924,2.186Z" transform="translate(-771.6 -659.2)" fill="#cef"/>
        </g>
        <g id="Group_55" data-name="Group 55" transform="translate(0 27.953)">
          <path id="Path_5" data-name="Path 5" d="M788.563,724.855a1.233,1.233,0,0,1-.893-.369l-15.7-15.7a1.284,1.284,0,0,1,1.816-1.816l15.7,15.7a1.278,1.278,0,0,1-.924,2.186Z" transform="translate(-771.6 -706.6)" fill="#cef"/>
        </g>
        <g id="Group_56" data-name="Group 56" transform="translate(53.627 52.025)">
          <path id="Path_6" data-name="Path 6" d="M946.847,844.89a1.352,1.352,0,0,1-1.047-1.324V786.152A1.321,1.321,0,0,1,947,784.8a1.3,1.3,0,0,1,1.355,1.293v57.568A1.264,1.264,0,0,1,946.847,844.89Z" transform="translate(-945.8 -784.796)" fill="#cef"/>
        </g>
        <g id="Group_57" data-name="Group 57" transform="translate(53.627 47.84)">
          <path id="Path_7" data-name="Path 7" d="M947.062,785.084a1.233,1.233,0,0,1-.893-.369,1.3,1.3,0,0,1,0-1.816L957.5,771.569a1.284,1.284,0,0,1,1.816,1.816l-11.329,11.3A1.335,1.335,0,0,1,947.062,785.084Z" transform="translate(-945.8 -771.2)" fill="#cef"/>
        </g>
        <g id="Group_58" data-name="Group 58" transform="translate(53.627 58.337)">
          <path id="Path_8" data-name="Path 8" d="M947.062,819.184a1.233,1.233,0,0,1-.893-.369,1.3,1.3,0,0,1,0-1.816L957.5,805.669a1.284,1.284,0,0,1,1.816,1.816l-11.329,11.329A1.3,1.3,0,0,1,947.062,819.184Z" transform="translate(-945.8 -805.3)" fill="#cef"/>
        </g>
      </g>
    </g>
    <path id="Path_9" data-name="Path 9" d="M342.088,993.12H37.871a3.574,3.574,0,0,1-3.571-3.571V971.971a3.574,3.574,0,0,1,3.571-3.571H342.118a3.574,3.574,0,0,1,3.571,3.571v17.578A3.62,3.62,0,0,1,342.088,993.12Z" transform="translate(0 -588.439)" fill="#f2f2f2"/>
    <g id="Group_65" data-name="Group 65" transform="translate(67.555 160.239)">
      <path id="Path_10" data-name="Path 10" d="M174.522,940.039c.185,4.495,6.4,13.915,5.357,15.7s-11.76,4.618-14.038,0c-2.247-4.618,2.063-12.406,2.063-15.7C167.965,936.776,174.522,940.039,174.522,940.039Z" transform="translate(-158.152 -728.045)"/>
      <path id="Path_11" data-name="Path 11" d="M230.2,940.863c2.709,4.71,16.839,11.391,17.824,13.823s-23.181-.092-28.322-6.28c1.847-5.572,3.294-10.005,3.294-10.005Z" transform="translate(-195.88 -727.914)"/>
      <path id="Path_12" data-name="Path 12" d="M186.9,541.188c-3.2,2.309-11.667,21.734-8.866,68.62a162.229,162.229,0,0,0-5.634,51.965h7.388s7.512-46.116,9.143-49.595,18.1-52.919,11.975-70.9S186.9,541.188,186.9,541.188Z" transform="translate(-162.959 -447.5)" fill="#0b577c"/>
      <path id="Path_13" data-name="Path 13" d="M233.007,531.605c-3.2,2.309-4.895,25.244-2.093,72.16a167.962,167.962,0,0,0-5.326,54.058h8.281s6.311-48.209,7.943-51.688,18.1-50.826,11.975-68.8C247.661,519.322,233.007,531.605,233.007,531.605Z" transform="translate(-199.705 -443.52)" fill="#0b577c"/>
      <path id="Path_14" data-name="Path 14" d="M288.3,393.4s10.744,5.849,11.667,14.13c.924,8.312.462,30.631-.924,32.17s-4.279,3.725-5.418,1.077S288.3,393.4,288.3,393.4Z" transform="translate(-243.362 -350.692)" fill="#ff1493"/>
      <path id="Path_15" data-name="Path 15" d="M157.371,373.118c2.063-2.955,10.744-3.048,10.744-3.048a67.588,67.588,0,0,1,7.142-1.57s13.853,7.789,14.808,10.375c.924,2.586,3.263,15.054,5.141,18.163,1.016,1.693-1.447,5.664-3.91,8.9a8.877,8.877,0,0,0-.277,10.375l4.187,6.188s-18.225,8.312-28.938,4.679c-1.416-11.945-4.156-31.185-8.374-33.248-12.622,24.32,4.033,39.9,4.033,39.9a14.359,14.359,0,0,1-3.171,3.971C123.692,414.893,155.339,376.042,157.371,373.118Z" transform="translate(-142.325 -333.457)" fill="#d41953"/>
      <path id="Path_16" data-name="Path 16" d="M273.9,437.053l7.542,3.14,4.648-13.884-7.542-3.109Z" transform="translate(-233.395 -371.318)"/>
      <path id="Path_17" data-name="Path 17" d="M304.618,462.9c3.263,8.312,8.4,28.014-1.416,28.014-2.34,0-2.8-24.382-2.8-26.475C301.816,462.9,304.618,462.9,304.618,462.9Z" transform="translate(-251.737 -398.796)" fill="#ffbb69"/>
      <path id="Path_18" data-name="Path 18" d="M286.76,450.025s-2.8-6.219-4.679-5.7-7.481,1.57-7.481,3.109,7.943,4.156,7.943,4.156h2.8Z" transform="translate(-233.879 -385.921)" fill="#ffd4b0"/>
      <path id="Path_19" data-name="Path 19" d="M196.073,587.46c-2.986-1.416-5.11-5.11,1.786-7.727,3.294-1.231,3.817,7.511,3.817,7.511Z" transform="translate(-177.579 -479.58)" fill="#ffd4b0"/>
      <g id="Group_64" data-name="Group 64" transform="translate(27.012 0)">
        <path id="Path_20" data-name="Path 20" d="M230.233,267.3c-1.139,4.987,3.879,4.371,8.866,5.48a9.234,9.234,0,1,0,4.094-18.009C238.206,253.632,231.341,262.313,230.233,267.3Z" transform="translate(-230.07 -254.669)"/>
        <g id="Group_61" data-name="Group 61" transform="translate(19.034 31.81)">
          <path id="Path_21" data-name="Path 21" d="M291.9,362.926c0-2.8,1.139-4.926,2.617-4.926s2.617,2.124,2.617,4.926-1.139,4.926-2.617,4.926S291.9,365.727,291.9,362.926Zm.924,0c0,2.37.893,4,1.693,4s1.693-1.632,1.693-4-.893-4-1.693-4S292.824,360.555,292.824,362.926Z" transform="translate(-291.9 -358)" fill="#ff1493"/>
        </g>
        <g id="Group_62" data-name="Group 62" transform="translate(0.564 10.729)">
          <path id="Path_22" data-name="Path 22" d="M270.733,310.91c5.849-4.926,14.777-16.932-6.773-20.934s-10.467,19.7-10.467,19.7Z" transform="translate(-244.874 -289.521)"/>
          <path id="Path_23" data-name="Path 23" d="M241.566,345.7c-1.416,2.586-9.666,10.251-9.666,10.251l11.7,23.735-.646-21.272,2.34-7.512Z" transform="translate(-231.9 -328.405)" fill="#ffc99c"/>
          <path id="Path_24" data-name="Path 24" d="M264.29,313.09c-2.8,5.141-1.878,14.253,2.309,17.086s10.528-1.416,13.33-6.557,1.693-11.606-2.494-14.438S267.091,307.949,264.29,313.09Z" transform="translate(-253.208 -302.168)" fill="#ffe3ca"/>
          <path id="Path_25" data-name="Path 25" d="M285.21,305.721c-5.6,5.7-19.61,1.047-19.61-2.586s3.725-8.835,3.725-8.835h6.526Z" transform="translate(-255.225 -292.829)"/>
          <ellipse id="Ellipse_3" data-name="Ellipse 3" cx="1.632" cy="3.109" rx="1.632" ry="3.109" transform="translate(9.42 10.306)" fill="#ffe3ca"/>
        </g>
        <g id="Group_63" data-name="Group 63" transform="translate(7.644 25.346)">
          <path id="Path_26" data-name="Path 26" d="M254.9,341.926c0-2.8,1.139-4.926,2.617-4.926s2.617,2.124,2.617,4.926-1.139,4.926-2.617,4.926S254.9,344.727,254.9,341.926Zm.924,0c0,2.37.893,4,1.693,4s1.693-1.632,1.693-4-.893-4-1.693-4S255.824,339.555,255.824,341.926Z" transform="translate(-254.9 -337)" fill="#ff1493"/>
        </g>
      </g>
    </g>
    <g id="Group_66" data-name="Group 66" transform="translate(162.796 144.241)">
      <path id="Path_27" data-name="Path 27" d="M576.656,237.949H455.394a3.705,3.705,0,0,1-3.694-3.694v-27.86a3.705,3.705,0,0,1,3.694-3.694H576.656a3.705,3.705,0,0,1,3.694,3.694v27.86A3.705,3.705,0,0,1,576.656,237.949Z" transform="translate(-451.7 -202.7)" fill="#d41953"/>
      <path id="Path_28" data-name="Path 28" d="M839.687,301.8c.431,1.662.092,5.326,4.679,8.035-4.987,0-9.666-2.955-9.666-8C835.562,298.873,839.687,301.8,839.687,301.8Z" transform="translate(-716.794 -270.397)" fill="#d41953"/>
    </g>
    <g id="Group_67" data-name="Group 67" transform="translate(141.124 189.248)">
      <path id="Path_29" data-name="Path 29" d="M383.732,372.05h39.8a2.437,2.437,0,0,0,2.432-2.432V351.332a2.437,2.437,0,0,0-2.432-2.432h-39.8a2.437,2.437,0,0,0-2.432,2.432v18.286A2.437,2.437,0,0,0,383.732,372.05Z" transform="translate(-381.3 -348.9)" fill="#ffa401"/>
      <path id="Path_30" data-name="Path 30" d="M389.479,408.729c-.431,1.662-.092,5.326-4.679,8.035,4.987,0,9.666-2.955,9.666-8C393.635,405.835,389.479,408.729,389.479,408.729Z" transform="translate(-383.723 -389.427)" fill="#ffa401"/>
    </g>
    <circle id="Ellipse_4" data-name="Ellipse 4" cx="9.513" cy="9.513" r="9.513" transform="translate(169.046 152.737)" fill="#fff"/>
    <path id="Path_31" data-name="Path 31" d="M641.366,233.478H559.139a1.544,1.544,0,0,1-1.539-1.539h0a1.544,1.544,0,0,1,1.539-1.539h82.227a1.544,1.544,0,0,1,1.539,1.539h0A1.544,1.544,0,0,1,641.366,233.478Z" transform="translate(-362.203 -77.632)" fill="#fff"/>
    <path id="Path_32" data-name="Path 32" d="M641.366,258.078H559.139a1.544,1.544,0,0,1-1.539-1.539h0A1.544,1.544,0,0,1,559.139,255h82.227a1.544,1.544,0,0,1,1.539,1.539h0A1.544,1.544,0,0,1,641.366,258.078Z" transform="translate(-362.203 -94.659)" fill="#fff"/>
    <path id="Path_33" data-name="Path 33" d="M602.792,282.678H558.739a1.157,1.157,0,0,1-1.139-1.139v-.8a1.157,1.157,0,0,1,1.139-1.139h44.053a1.157,1.157,0,0,1,1.139,1.139v.8A1.136,1.136,0,0,1,602.792,282.678Z" transform="translate(-362.203 -111.686)" fill="#fff"/>
    <g id="Group_68" data-name="Group 68" transform="translate(149.928 197.53)">
      <circle id="Ellipse_5" data-name="Ellipse 5" cx="3.325" cy="3.325" r="3.325" transform="translate(0 0)" fill="#fff"/>
      <circle id="Ellipse_6" data-name="Ellipse 6" cx="3.325" cy="3.325" r="3.325" transform="translate(10.19 0)" fill="#fff"/>
      <circle id="Ellipse_7" data-name="Ellipse 7" cx="3.325" cy="3.325" r="3.325" transform="translate(20.41 0)" fill="#fff"/>
    </g>
  </g>
</svg>
