<svg xmlns="http://www.w3.org/2000/svg" width="264.764" height="278.72" viewBox="0 0 264.764 278.72">
  <g id="image" transform="translate(-134.805 -164.84)">
    <g id="Group_71" data-name="Group 71" transform="translate(134.805 196.647)">
      <g id="Group_70" data-name="Group 70" transform="translate(0 0)">
        <path id="Path_35" data-name="Path 35" d="M345.947,307.546a2.691,2.691,0,0,1-1.31,3.943l-25.963,10.759a2.728,2.728,0,0,1-3.743-1.849l-11-40.911a3.753,3.753,0,0,1,2.17-4.236l14.183-5.877a3.754,3.754,0,0,1,4.53,1.459Z" transform="translate(-252.277 -269.112)" fill="#ffe7bc"/>
        <path id="Path_36" data-name="Path 36" d="M186.415,448.3a2.751,2.751,0,0,1,1.871,3.806l-10.752,25.913a2.682,2.682,0,0,1-3.945,1.373l-36.627-21.131a3.839,3.839,0,0,1-1.544-4.594l5.882-14.147a3.672,3.672,0,0,1,4.294-2.107Z" transform="translate(-135.058 -385.991)" fill="#ffe7bc"/>
        <path id="Path_37" data-name="Path 37" d="M173.193,626.1a2.75,2.75,0,0,1,4,1.353l10.759,25.963a2.721,2.721,0,0,1-1.868,3.784l-40.849,10.909a3.717,3.717,0,0,1-4.268-2.091l-5.9-14.239a3.688,3.688,0,0,1,1.538-4.5Z" transform="translate(-134.805 -516.934)" fill="#ffe7bc"/>
        <path id="Path_38" data-name="Path 38" d="M314.054,760.911a2.678,2.678,0,0,1,3.764-1.888l25.954,10.769a2.727,2.727,0,0,1,1.346,3.957l-21.133,36.628a3.821,3.821,0,0,1-4.526,1.548l-14.243-5.874a3.824,3.824,0,0,1-2.13-4.352Z" transform="translate(-251.679 -609.413)" fill="#ffe7bc"/>
        <path id="Path_39" data-name="Path 39" d="M491.91,774.05a2.669,2.669,0,0,1,1.337-3.956l25.934-10.747a2.728,2.728,0,0,1,3.744,1.85L533.9,802.119a3.647,3.647,0,0,1-2.142,4.225l-14.209,5.888a3.748,3.748,0,0,1-4.5-1.472Z" transform="translate(-382.679 -609.651)" fill="#ffe7bc"/>
        <path id="Path_40" data-name="Path 40" d="M626.7,658.038a2.747,2.747,0,0,1-1.815-3.828l10.73-25.969a2.759,2.759,0,0,1,3.995-1.329l36.6,21.143a3.71,3.71,0,0,1,1.521,4.538l-5.857,14.2a3.675,3.675,0,0,1-4.3,2.107Z" transform="translate(-475.218 -517.494)" fill="#ffe7bc"/>
        <path id="Path_41" data-name="Path 41" d="M639.911,480.248a2.728,2.728,0,0,1-3.941-1.377l-10.759-25.963a2.7,2.7,0,0,1,1.812-3.76l40.905-10.932a3.717,3.717,0,0,1,4.268,2.091l5.9,14.237a3.767,3.767,0,0,1-1.538,4.5Z" transform="translate(-475.453 -386.557)" fill="#ffe7bc"/>
        <path id="Path_42" data-name="Path 42" d="M523.8,320.628a2.717,2.717,0,0,1-3.764,1.888l-25.955-10.769a2.687,2.687,0,0,1-1.345-3.957l21.132-36.627a3.819,3.819,0,0,1,4.526-1.547l14.243,5.874a3.82,3.82,0,0,1,2.108,4.3Z" transform="translate(-383.275 -269.293)" fill="#ffe7bc"/>
        <path id="Path_43" data-name="Path 43" d="M228.988,313.924A89.751,89.751,0,1,0,346.2,362.5,89.768,89.768,0,0,0,228.988,313.924Zm56.2,135.623a57.055,57.055,0,1,1,30.839-74.539A57.115,57.115,0,0,1,285.188,449.547Z" transform="translate(-161.729 -295.491)" fill="#ffe7bc"/>
      </g>
    </g>
    <g id="Group_73" data-name="Group 73" transform="translate(312.33 356.321)">
      <g id="Group_72" data-name="Group 72">
        <path id="Path_44" data-name="Path 44" d="M807.594,809.114a1.145,1.145,0,0,1-.576,1.666L795.861,815.4a1.166,1.166,0,0,1-1.612-.759l-4.719-17.572a1.606,1.606,0,0,1,.911-1.871l6.091-2.524a1.606,1.606,0,0,1,1.967.678Z" transform="translate(-767.305 -792.565)" fill="#ffe7bc"/>
        <path id="Path_45" data-name="Path 45" d="M739.023,869.7a1.162,1.162,0,0,1,.8,1.616l-4.63,11.132a1.161,1.161,0,0,1-1.684.633l-15.746-9.111a1.676,1.676,0,0,1-.664-2l2.524-6.042a1.6,1.6,0,0,1,1.864-.9Z" transform="translate(-716.929 -842.885)" fill="#ffe7bc"/>
        <path id="Path_46" data-name="Path 46" d="M733.306,946.1a1.147,1.147,0,0,1,1.7.592l4.612,11.129a1.146,1.146,0,0,1-.787,1.623l-17.584,4.692a1.572,1.572,0,0,1-1.82-.869l-2.546-6.144a1.545,1.545,0,0,1,.672-1.9Z" transform="translate(-716.779 -899.138)" fill="#ffe7bc"/>
        <path id="Path_47" data-name="Path 47" d="M793.867,1004.077a1.164,1.164,0,0,1,1.615-.8l11.148,4.594a1.16,1.16,0,0,1,.577,1.707l-9.071,15.762a1.625,1.625,0,0,1-1.928.669l-6.137-2.518a1.667,1.667,0,0,1-.914-1.893Z" transform="translate(-767.048 -938.932)" fill="#ffe7bc"/>
        <path id="Path_48" data-name="Path 48" d="M870.313,1009.733a1.135,1.135,0,0,1,.6-1.676l11.13-4.612a1.166,1.166,0,0,1,1.613.759l4.718,17.573a1.583,1.583,0,0,1-.911,1.871l-6.118,2.535a1.6,1.6,0,0,1-1.941-.689Z" transform="translate(-823.356 -939.048)" fill="#ffe7bc"/>
        <path id="Path_49" data-name="Path 49" d="M928.269,959.793a1.161,1.161,0,0,1-.772-1.626l4.609-11.189a1.206,1.206,0,0,1,1.707-.577l15.746,9.111a1.555,1.555,0,0,1,.641,1.941l-2.5,6.1a1.6,1.6,0,0,1-1.865.9Z" transform="translate(-863.146 -899.361)" fill="#ffe7bc"/>
        <path id="Path_50" data-name="Path 50" d="M933.947,883.373a1.137,1.137,0,0,1-1.678-.6l-4.612-11.129a1.136,1.136,0,0,1,.76-1.612l17.611-4.7a1.571,1.571,0,0,1,1.818.869l2.547,6.146a1.569,1.569,0,0,1-.671,1.9Z" transform="translate(-863.257 -843.09)" fill="#ffe7bc"/>
        <path id="Path_51" data-name="Path 51" d="M884.06,814.8a1.163,1.163,0,0,1-1.615.8L871.3,811a1.16,1.16,0,0,1-.577-1.707l9.071-15.762a1.625,1.625,0,0,1,1.929-.669l6.136,2.518a1.625,1.625,0,0,1,.89,1.838Z" transform="translate(-823.635 -792.708)" fill="#ffe7bc"/>
        <path id="Path_52" data-name="Path 52" d="M757.321,811.916a38.569,38.569,0,1,0,50.356,20.85A38.561,38.561,0,0,0,757.321,811.916Zm24.161,58.3a24.544,24.544,0,1,1,13.239-32.086A24.589,24.589,0,0,1,781.482,870.22Z" transform="translate(-728.381 -803.964)" fill="#ffe7bc"/>
      </g>
    </g>
    <g id="Group_77" data-name="Group 77" transform="translate(246.753 164.84)">
      <path id="Path_53" data-name="Path 53" d="M540.787,293.661v44.09a17.737,17.737,0,0,0,35.474,0v-44.09H540.787Z" transform="translate(-528.895 -254.366)" fill="#d41953"/>
      <rect id="Rectangle_3" data-name="Rectangle 3" width="30.07" height="25.161" transform="translate(13.618 81.065)" fill="#de0f7f"/>
      <path id="Path_54" data-name="Path 54" d="M568.987,348.374a13.145,13.145,0,1,1,13.144-13.147A13.162,13.162,0,0,1,568.987,348.374Z" transform="translate(-539.356 -274.118)" fill="#0b4870"/>
      <path id="Path_55" data-name="Path 55" d="M522.042,455.753V430.592h-8.349L501.8,466.344Z" transform="translate(-501.801 -349.527)" fill="#be0569"/>
      <path id="Path_56" data-name="Path 56" d="M629.85,455.753V430.592H638.2l11.892,35.752Z" transform="translate(-590.79 -349.527)" fill="#be0569"/>
      <path id="Path_57" data-name="Path 57" d="M558.526,164.84h0l-17.739,39.342h35.474Z" transform="translate(-528.895 -164.84)" fill="#be0569"/>
      <g id="Group_74" data-name="Group 74" transform="translate(20.241 51.724)">
        <path id="Path_58" data-name="Path 58" d="M584.242,337.213a9.388,9.388,0,1,1-13.276-.124A9.4,9.4,0,0,1,584.242,337.213Z" transform="translate(-568.158 -334.406)" fill="#2a94f4"/>
      </g>
      <g id="Group_75" data-name="Group 75" transform="translate(20.434 51.724)">
        <path id="Path_59" data-name="Path 59" d="M584.681,337.213a9.4,9.4,0,0,1,2.527,4.848,9.387,9.387,0,0,1-18.419-.178,9.387,9.387,0,0,1,15.892-4.67Z" transform="translate(-568.789 -334.406)" fill="#cce9ff"/>
      </g>
      <g id="Group_76" data-name="Group 76" transform="translate(24.298 54.124)">
        <path id="Path_60" data-name="Path 60" d="M591.987,345.158a.493.493,0,0,1-.692-.011,6.386,6.386,0,0,0-9.012-.089.485.485,0,1,1-.685-.688,7.357,7.357,0,0,1,10.388.1A.489.489,0,0,1,591.987,345.158Z" transform="translate(-581.457 -342.272)" fill="#fff"/>
      </g>
      <path id="Path_61" data-name="Path 61" d="M596.879,342.386a.505.505,0,0,1-.72.709.51.51,0,0,1,.007-.717A.5.5,0,0,1,596.879,342.386Z" transform="translate(-567.277 -288.122)" fill="#fff"/>
      <path id="Path_62" data-name="Path 62" d="M601.755,343.951a.289.289,0,0,1-.413.4.279.279,0,0,1,.007-.406A.287.287,0,0,1,601.755,343.951Z" transform="translate(-570.919 -289.255)" fill="#fff"/>
      <rect id="Rectangle_4" data-name="Rectangle 4" width="18.612" height="80.915" transform="translate(20.241 106.225)" fill="#d3d3d3"/>
    </g>
    <g id="Group_78" data-name="Group 78" transform="translate(188.632 297.463)">
      <path id="Path_63" data-name="Path 63" d="M557.547,910.628H531.431s2.107,37.06-10.873,37.06H568.42C555.436,947.688,557.547,910.628,557.547,910.628Z" transform="translate(-456.715 -815.757)" fill="#e8a42b"/>
      <path id="Path_64" data-name="Path 64" d="M482.031,599.614H316.037a4.77,4.77,0,0,0-4.773,4.77V710.77a4.166,4.166,0,0,0,4.164,4.164H482.651a4.167,4.167,0,0,0,4.157-4.164V604.384A4.767,4.767,0,0,0,482.031,599.614Z" transform="translate(-311.264 -599.614)" fill="#e8a42b"/>
      <rect id="Rectangle_5" data-name="Rectangle 5" width="164.158" height="88.134" transform="translate(5.697 5.511)" fill="#f2f2f2"/>
      <rect id="Rectangle_6" data-name="Rectangle 6" width="164.279" height="5.133" transform="translate(5.632 92.918)" fill="#d3d3d3"/>
      <path id="Path_65" data-name="Path 65" d="M593.5,938.837a4.314,4.314,0,1,1-4.313-4.321A4.306,4.306,0,0,1,593.5,938.837Z" transform="translate(-501.408 -832.358)" fill="#c98c1e"/>
      <path id="Path_70" data-name="Path 70" d="M0,0H48.849V1.654H0Z" transform="translate(63.347 131.205)" fill="#c98c1e"/>
    </g>
    <g id="Group_79" data-name="Group 79" transform="translate(232.016 317.815)">
      <rect id="Rectangle_8" data-name="Rectangle 8" width="92.775" height="57.651" transform="translate(0 4.577)" fill="#fff"/>
      <path id="Path_71" data-name="Path 71" d="M0,0H92.775V4.577H0Z" transform="translate(0)" fill="#dc127f"/>
      <path id="Path_66" data-name="Path 66" d="M490.869,721.973h10l-4.994-3.052-5-3.037-5,3.037-5,3.052Z" transform="translate(-472.517 -700.769)" fill="#ff1493"/>
      <path id="Path_67" data-name="Path 67" d="M552.762,712h15.033l-7.518-5.233-7.515-5.233-7.518,5.233L537.725,712Z" transform="translate(-512.029 -690.795)" fill="#ff1493"/>
      <path id="Path_68" data-name="Path 68" d="M619.214,725.286H640.14l-10.466-2.324-10.46-2.31-10.473,2.31-10.456,2.324Z" transform="translate(-554.116 -704.082)" fill="#ff1493"/>
      <rect id="Rectangle_10" data-name="Rectangle 10" width="2.385" height="12.463" transform="translate(6.556 41.481)" fill="#ff1493"/>
      <rect id="Rectangle_11" data-name="Rectangle 11" width="2.381" height="6.232" transform="translate(10.862 47.712)" fill="#ff1493"/>
      <rect id="Rectangle_12" data-name="Rectangle 12" width="2.385" height="15.771" transform="translate(15.165 38.173)" fill="#ff1493"/>
      <rect id="Rectangle_13" data-name="Rectangle 13" width="3.6" height="12.463" transform="translate(69.226 41.124)" fill="#ff1493"/>
      <rect id="Rectangle_14" data-name="Rectangle 14" width="3.6" height="6.232" transform="translate(75.728 47.355)" fill="#ff1493"/>
      <rect id="Rectangle_15" data-name="Rectangle 15" width="3.6" height="15.771" transform="translate(82.231 37.816)" fill="#ff1493"/>
      <rect id="Rectangle_16" data-name="Rectangle 16" width="2.385" height="18.252" transform="translate(19.471 35.691)" fill="#ff1493"/>
      <rect id="Rectangle_17" data-name="Rectangle 17" width="28.975" height="18.252" transform="translate(33.463 35.691)" fill="#f153a8"/>
      <path id="Path_69" data-name="Path 69" d="M563.19,812.052l6.36-7.03,5.658,3.921,8.83-10.552,8.128,13.661Z" transform="translate(-529.727 -758.108)" fill="#fff"/>
    </g>
  </g>
</svg>
