<svg xmlns="http://www.w3.org/2000/svg" width="313" height="263.205" viewBox="0 0 313 263.205">
  <g id="image" transform="translate(-360.8 -78.1)">
    <g id="Group_84" data-name="Group 84" transform="translate(449.87 78.1)">
      <g id="Group_80" data-name="Group 80" opacity="0.3">
        <path id="Path_73" data-name="Path 73" d="M824.8,115.6H740.714A21.007,21.007,0,0,0,719.7,136.614V347.57a21.007,21.007,0,0,0,21.014,21.014H824.8a21.03,21.03,0,0,0,21.041-21.014V136.614A21.048,21.048,0,0,0,824.8,115.6Z" transform="translate(-710.951 -105.379)" fill="#d2d2d2" opacity="0"/>
        <path id="Path_74" data-name="Path 74" d="M808.7,96.9H724.614A21.007,21.007,0,0,0,703.6,117.914V328.87a21.007,21.007,0,0,0,21.014,21.014H808.7a21.031,21.031,0,0,0,21.041-21.014V117.914A21.031,21.031,0,0,0,808.7,96.9Z" transform="translate(-699.239 -91.776)" fill="#d2d2d2" opacity="0.5"/>
        <path id="Path_75" data-name="Path 75" d="M792.7,78.1H708.614A21.007,21.007,0,0,0,687.6,99.114V310.07a21.007,21.007,0,0,0,21.014,21.014H792.7a21.031,21.031,0,0,0,21.041-21.014V99.114A21.066,21.066,0,0,0,792.7,78.1Z" transform="translate(-687.6 -78.1)" fill="#d2d2d2"/>
      </g>
      <g id="Group_83" data-name="Group 83">
        <g id="Group_81" data-name="Group 81">
          <path id="Path_76" data-name="Path 76" d="M792.7,78.1H708.614A21.007,21.007,0,0,0,687.6,99.114V310.07a21.007,21.007,0,0,0,21.014,21.014H792.7a21.031,21.031,0,0,0,21.041-21.014V99.114A21.066,21.066,0,0,0,792.7,78.1Z" transform="translate(-687.6 -78.1)" fill="#e8a42b"/>
        </g>
        <g id="Group_82" data-name="Group 82" opacity="0.4">
          <path id="Path_77" data-name="Path 77" d="M792.7,78.1H708.614A21.007,21.007,0,0,0,687.6,99.114V310.07a21.007,21.007,0,0,0,21.014,21.014H792.7a21.031,21.031,0,0,0,21.041-21.014V99.114A21.066,21.066,0,0,0,792.7,78.1Z" transform="translate(-687.6 -78.1)" fill="#e8a42b"/>
        </g>
      </g>
      <path id="Path_78" data-name="Path 78" d="M822.963,112.227V325.091a14.825,14.825,0,0,1-14.827,14.827H722.827A14.825,14.825,0,0,1,708,325.091V112.227A14.842,14.842,0,0,1,722.827,97.4h14.636a3.144,3.144,0,0,1,3.134,2.862l.164,1.772a6.173,6.173,0,0,0,6.16,5.642h37.122a6.212,6.212,0,0,0,6.16-5.642l.164-1.772A3.123,3.123,0,0,1,793.5,97.4h14.663A14.8,14.8,0,0,1,822.963,112.227Z" transform="translate(-702.44 -92.14)" fill="#fff"/>
      <path id="Path_79" data-name="Path 79" d="M893.163,108.926h-28.4a.762.762,0,0,1-.763-.763h0a.762.762,0,0,1,.763-.763h28.4a.762.762,0,0,1,.763.763h0A.762.762,0,0,1,893.163,108.926Z" transform="translate(-815.922 -99.414)" fill="#358df9"/>
      <rect id="Rectangle_18" data-name="Rectangle 18" width="81.057" height="10.303" transform="translate(22.54 102.998)" fill="rgba(243,48,154,0.45)"/>
      <rect id="Rectangle_19" data-name="Rectangle 19" width="81.057" height="10.303" transform="translate(22.54 120.305)" fill="rgba(243,48,154,0.45)"/>
      <rect id="Rectangle_20" data-name="Rectangle 20" width="81.057" height="10.303" transform="translate(22.54 136.767)" fill="rgba(243,48,154,0.45)"/>
      <rect id="Rectangle_21" data-name="Rectangle 21" width="81.057" height="19.624" transform="translate(22.54 182.856)" fill="rgba(243,48,154,0.45)"/>
      <rect id="Rectangle_22" data-name="Rectangle 22" width="41.51" height="10.303" transform="translate(22.54 155.274)" fill="rgba(243,48,154,0.45)"/>
      <path id="Path_80" data-name="Path 80" d="M787.352,241.931h-.709v-.218h.709Zm-1.417,0h-.709v-.218h.709Zm-1.39,0h-.709v-.218h.709Zm-1.39,0h-.708v-.218h.708Zm-1.39,0h-.709v-.218h.709Zm-1.39,0h-.709v-.218h.709Zm-1.39,0h-.709v-.218h.709Zm-1.39,0h-.709v-.218h.709Zm-1.417,0h-.709v-.218h.709Zm-1.39,0h-.709v-.245h.709Zm13.246,0v-.245a2.911,2.911,0,0,0,.681-.082l.055.218A2.3,2.3,0,0,1,788.034,241.931Zm-14.663-.055a4.965,4.965,0,0,1-.681-.191l.082-.218a2.875,2.875,0,0,0,.654.164Zm16.081-.218-.082-.218a4.1,4.1,0,0,0,.6-.3l.109.191A2.744,2.744,0,0,1,789.451,241.659Zm-17.416-.273a2.918,2.918,0,0,1-.6-.409l.136-.191a2.988,2.988,0,0,0,.572.382Zm18.643-.463-.136-.191c.164-.136.327-.3.491-.463l.164.164A4.3,4.3,0,0,1,790.678,240.923Zm-19.76-.409c-.164-.191-.3-.382-.436-.572l.191-.136a4.061,4.061,0,0,0,.409.545Zm20.687-.654-.191-.109a6.129,6.129,0,0,0,.3-.6l.218.082C791.822,239.424,791.713,239.642,791.6,239.86Zm-21.45-.545a4.98,4.98,0,0,1-.218-.681l.218-.055a6.143,6.143,0,0,0,.218.654Zm21.968-.79-.218-.055a2.743,2.743,0,0,0,.082-.681h.245A5.276,5.276,0,0,1,792.122,238.524Zm-22.295-.6v-.709h.245v.681Zm22.4-.818h-.245V236.4h.245Zm-22.186-.6H769.8V235.8h.245Zm22.186-.79h-.245v-.709h.245Zm-22.186-.6H769.8v-.709h.245Zm22.186-.79h-.245v-.709h.245Zm-22.186-.6H769.8v-.709h.245Zm22.186-.79h-.245v-.709h.245Zm-22.186-.6H769.8v-.709h.245Zm22.186-.79h-.245v-.709h.245Zm-22.186-.6H769.8v-.709h.245Zm22.186-.79h-.245v-.709h.245Zm-22.186-.6H769.8v-.709h.245Zm22.186-.818h-.245v-.709h.245Zm-22.186-.6H769.8v-.709h.245Zm22.186-.79h-.245v-.709h.245Zm-22.186-.6H769.8v-.709h.245Zm22.186-.79h-.245v-.709h.245Zm-22.186-.6H769.8v-.709h.245Zm22.186-.79h-.245v-.709a4.85,4.85,0,0,0-.055-.627l.218-.027a5.3,5.3,0,0,1,.054.654v.709Zm-22.186-.6H769.8v-.109a4.871,4.871,0,0,1,.054-.627l.218.027a4.021,4.021,0,0,0-.027.572Zm.191-1.336-.218-.082a6.651,6.651,0,0,1,.273-.654l.218.109A1.831,1.831,0,0,0,770.236,222.634Zm21.559-.027a4.339,4.339,0,0,0-.273-.627l.218-.109a6.638,6.638,0,0,1,.272.654Zm-20.959-1.172-.191-.136a4.446,4.446,0,0,1,.463-.545l.164.164C771.135,221.081,770.972,221.244,770.836,221.435Zm20.333-.027a4.192,4.192,0,0,0-.463-.518l.163-.164a4.441,4.441,0,0,1,.463.545Zm-19.351-.927-.136-.191a4.662,4.662,0,0,1,.627-.354l.109.218A2.564,2.564,0,0,0,771.817,220.481Zm18.37-.027a2.564,2.564,0,0,0-.6-.327l.109-.218a4.662,4.662,0,0,1,.627.354Zm-17.144-.545-.054-.218a5.439,5.439,0,0,1,.709-.136l.027.218A5.027,5.027,0,0,0,773.043,219.909Zm15.944,0a5.578,5.578,0,0,0-.654-.136l.027-.218a6.478,6.478,0,0,1,.709.136Zm-1.363-.164h-.709V219.5h.709Zm-1.39,0h-.709V219.5h.709Zm-1.39,0h-.709V219.5h.709Zm-1.39,0h-.709V219.5h.709Zm-1.417,0h-.709V219.5h.709Zm-1.39,0h-.709V219.5h.709Zm-1.39,0h-.681V219.5h.709v.245Zm-1.39,0h-.709V219.5h.709Zm-1.39,0h-.709V219.5h.709Zm-1.39,0h-.709V219.5h.709Z" transform="translate(-747.396 -180.961)" fill="#ff1493"/>
      <path id="Path_81" data-name="Path 81" d="M900.559,224.225v13.737a4.228,4.228,0,0,1-4.225,4.225H882.625a4.228,4.228,0,0,1-4.225-4.225V224.225A4.228,4.228,0,0,1,882.625,220h13.709A4.228,4.228,0,0,1,900.559,224.225Z" transform="translate(-826.397 -181.325)" fill="#d41953"/>
      <path id="Path_82" data-name="Path 82" d="M1008.459,224.225v13.737a4.228,4.228,0,0,1-4.225,4.225H990.525a4.228,4.228,0,0,1-4.225-4.225V224.225A4.228,4.228,0,0,1,990.525,220h13.709A4.228,4.228,0,0,1,1008.459,224.225Z" transform="translate(-904.888 -181.325)" fill="#d41953"/>
      <path id="Path_83" data-name="Path 83" d="M986.2,347.925v13.737a4.228,4.228,0,0,0,4.225,4.225h13.709a4.228,4.228,0,0,0,4.224-4.225V347.925a4.228,4.228,0,0,0-4.224-4.225H990.425A4.246,4.246,0,0,0,986.2,347.925Z" transform="translate(-904.816 -271.31)" fill="#d41953"/>
      <path id="Path_84" data-name="Path 84" d="M895.8,365.631h-.627v-.245h.709v.245Zm-1.336,0h-.709v-.245h.709Zm-1.417,0h-.709v-.245h.709Zm-1.39,0h-.709v-.245h.709Zm-1.39,0h-.709v-.245h.709Zm-1.39,0h-.709v-.245h.709Zm-1.39,0h-.709v-.245h.709Zm-1.39,0h-.709v-.245h.709Zm-1.39,0H884v-.245h.709Zm-1.417,0h-.709v-.245h.709Zm-1.39,0a2.971,2.971,0,0,1-.709-.082l.055-.218a2.744,2.744,0,0,0,.681.082Zm14.663-.055-.055-.218a5.74,5.74,0,0,0,.654-.164l.082.218C897.024,365.468,896.806,365.522,896.561,365.577Zm-16.053-.218a6.971,6.971,0,0,1-.654-.3l.109-.191a6.149,6.149,0,0,0,.6.3Zm17.389-.273-.109-.191c.191-.109.382-.245.572-.382l.136.191A4.48,4.48,0,0,1,897.9,365.086Zm-18.615-.463c-.191-.164-.354-.327-.518-.491l.164-.164a2.66,2.66,0,0,0,.491.463Zm19.733-.409-.164-.164a2.593,2.593,0,0,0,.409-.545l.191.136C899.313,363.832,899.177,364.023,899.014,364.214Zm-20.66-.654a2.747,2.747,0,0,1-.327-.627l.218-.082a4.1,4.1,0,0,0,.3.6Zm21.423-.545-.218-.082a6.13,6.13,0,0,0,.218-.654l.218.055A2.2,2.2,0,0,1,899.777,363.015Zm-21.968-.79a3.143,3.143,0,0,1-.082-.709h.245a5.787,5.787,0,0,0,.082.681Zm22.322-.6-.245-.027v-.681h.245v.709Zm-22.186-.818H877.7V360.1h.245Zm22.186-.6h-.245V359.5h.245Zm-22.186-.79H877.7v-.709h.245Zm22.186-.6h-.245v-.681h.245Zm-22.186-.79H877.7v-.709h.245Zm22.186-.6h-.245v-.709h.245Zm-22.186-.79H877.7v-.709h.245Zm22.186-.6h-.245v-.709h.245Zm-22.186-.79H877.7v-.709h.245Zm22.186-.6h-.245v-.709h.245Zm-22.186-.79H877.7v-.709h.245Zm22.186-.6h-.245v-.709h.245Zm-22.186-.818H877.7v-.709h.245Zm22.186-.6h-.245v-.709h.245Zm-22.186-.79H877.7v-.709h.245Zm22.186-.6h-.245v-.709h.245Zm-22.186-.79H877.7v-.709h.245Zm22.186-.6h-.245v-.709h.245Zm-22.186-.79H877.7v-.709a5.288,5.288,0,0,1,.055-.654l.218.027a4.479,4.479,0,0,0-.055.627v.709Zm22.186-.6h-.245v-.109c0-.191-.027-.382-.027-.572l.218-.027a4.479,4.479,0,0,1,.055.627Zm-.409-1.336a4.28,4.28,0,0,0-.245-.627l.218-.109a6.65,6.65,0,0,1,.273.654Zm-21.586-.027-.218-.082a6.65,6.65,0,0,1,.273-.654l.218.109A4.344,4.344,0,0,0,878.136,346.307Zm20.959-1.172a3.983,3.983,0,0,0-.436-.518l.164-.164a4.443,4.443,0,0,1,.463.545Zm-20.332-.027-.191-.136a4.453,4.453,0,0,1,.463-.545l.164.164C879.063,344.754,878.9,344.917,878.763,345.108Zm19.379-.927a3.067,3.067,0,0,0-.572-.327l.109-.218a4.66,4.66,0,0,1,.627.354Zm-18.4,0-.136-.191a4.659,4.659,0,0,1,.627-.354l.109.218A2.566,2.566,0,0,0,879.744,344.181Zm17.171-.572a5.59,5.59,0,0,0-.654-.136l.027-.218a6.491,6.491,0,0,1,.709.136Zm-15.944,0-.055-.218a5.444,5.444,0,0,1,.709-.136l.027.218A5.028,5.028,0,0,0,880.971,343.609Zm14.582-.164h-.709V343.2h.709Zm-1.39,0h-.709V343.2h.709Zm-1.39,0h-.709V343.2h.709Zm-1.39,0h-.709V343.2h.709Zm-1.39,0h-.709V343.2h.709Zm-1.39,0h-.709V343.2h.709Zm-1.417,0H886.5V343.2h.709v.245Zm-1.39,0h-.709V343.2h.709Zm-1.39,0H883.7V343.2h.709Zm-1.39,0h-.709V343.2h.709Z" transform="translate(-825.888 -270.946)" fill="#ff1493"/>
      <path id="Path_85" data-name="Path 85" d="M787.87,365.631h-.627v-.245h.709v.245Zm-1.335,0h-.709v-.245h.709Zm-1.39,0h-.709v-.245h.709Zm-1.39,0h-.709v-.245h.709Zm-1.39,0h-.709v-.245h.709Zm-1.39,0h-.709v-.245h.709Zm-1.39,0h-.709v-.245h.709Zm-1.39,0h-.709v-.245h.709Zm-1.417,0h-.709v-.245h.709Zm-1.39,0h-.709v-.245h.709Zm-1.39,0a2.971,2.971,0,0,1-.709-.082l.055-.218a2.744,2.744,0,0,0,.681.082Zm14.663-.055-.054-.218a5.742,5.742,0,0,0,.654-.164l.082.218C789.124,365.468,788.879,365.522,788.661,365.577Zm-16.053-.218a6.971,6.971,0,0,1-.654-.3l.109-.191a6.15,6.15,0,0,0,.6.3ZM790,365.086l-.109-.191c.191-.109.382-.245.572-.382l.136.191A4.484,4.484,0,0,1,790,365.086Zm-18.615-.463c-.191-.164-.354-.327-.518-.491l.164-.164a2.66,2.66,0,0,0,.491.463Zm19.733-.409-.163-.164a2.6,2.6,0,0,0,.409-.545l.191.136C791.413,363.832,791.277,364.023,791.114,364.214Zm-20.687-.654a2.747,2.747,0,0,1-.327-.627l.218-.082a4.1,4.1,0,0,0,.3.6Zm21.45-.545-.218-.082a6.116,6.116,0,0,0,.218-.654l.218.055A3.291,3.291,0,0,1,791.877,363.015Zm-21.968-.79a3.139,3.139,0,0,1-.082-.709h.245a5.8,5.8,0,0,0,.082.681Zm22.322-.6-.245-.027v-.681h.245v.709Zm-22.186-.818H769.8V360.1h.245Zm22.186-.6h-.245V359.5h.245Zm-22.186-.79H769.8v-.709h.245Zm22.186-.6h-.245v-.681h.245Zm-22.186-.79H769.8v-.709h.245Zm22.186-.6h-.245v-.709h.245Zm-22.186-.79H769.8v-.709h.245Zm22.186-.6h-.245v-.709h.245Zm-22.186-.79H769.8v-.709h.245Zm22.186-.6h-.245v-.709h.245Zm-22.186-.79H769.8v-.709h.245Zm22.186-.6h-.245v-.709h.245Zm-22.186-.818H769.8v-.709h.245Zm22.186-.6h-.245v-.709h.245Zm-22.186-.79H769.8v-.709h.245Zm22.186-.6h-.245v-.709h.245Zm-22.186-.79H769.8v-.709h.245Zm22.186-.6h-.245v-.709h.245Zm-22.186-.79H769.8v-.709a5.3,5.3,0,0,1,.054-.654l.218.027a4.47,4.47,0,0,0-.055.627v.709Zm22.186-.6h-.245v-.109c0-.191-.027-.382-.027-.572l.218-.027a4.479,4.479,0,0,1,.055.627Zm-.409-1.336a4.287,4.287,0,0,0-.245-.627l.218-.109a6.666,6.666,0,0,1,.273.654Zm-21.586-.027-.218-.082a6.651,6.651,0,0,1,.273-.654l.218.109A4.351,4.351,0,0,0,770.236,346.307Zm20.959-1.172a4,4,0,0,0-.436-.518l.163-.164a4.449,4.449,0,0,1,.463.545Zm-20.332-.027-.191-.136a4.453,4.453,0,0,1,.463-.545l.164.164C771.163,344.754,771,344.917,770.863,345.108Zm19.351-.927a3.067,3.067,0,0,0-.572-.327l.109-.218a4.659,4.659,0,0,1,.627.354Zm-18.37,0-.136-.191a4.659,4.659,0,0,1,.627-.354l.109.218A2.566,2.566,0,0,0,771.844,344.181Zm17.171-.572a5.585,5.585,0,0,0-.654-.136l.027-.218a6.5,6.5,0,0,1,.709.136Zm-15.944,0-.055-.218a5.444,5.444,0,0,1,.709-.136l.027.218A5.025,5.025,0,0,0,773.071,343.609Zm14.582-.164h-.709V343.2h.709Zm-1.39,0h-.709V343.2h.709Zm-1.39,0h-.709V343.2h.709Zm-1.39,0h-.709V343.2h.709Zm-1.39,0h-.709V343.2h.709Zm-1.417,0h-.709V343.2h.709Zm-1.39,0h-.709V343.2h.709Zm-1.39,0h-.681V343.2h.709v.245Zm-1.39,0H775.8V343.2h.709Zm-1.39,0h-.709V343.2h.709Z" transform="translate(-747.396 -270.946)" fill="#ff1493"/>
    </g>
    <g id="Group_89" data-name="Group 89" transform="translate(360.8 133.128)">
      <g id="Group_85" data-name="Group 85" transform="translate(11.652 19.651)">
        <path id="Path_86" data-name="Path 86" d="M470.59,420.2l-5.751-6.323a.364.364,0,0,0-.545,0l-.164.191c-.027.055-.082.082-.109.136-.218.245-.436.436-.627.627-.191.164-.382.327-.627.518-.055.027-.082.082-.136.109l-.164.109a.348.348,0,0,0-.055.545l5.724,6.323a.746.746,0,0,0,.518.191h.136a2.337,2.337,0,0,0,1.145-.545l.055-.055C470.645,421.368,470.917,420.577,470.59,420.2Zm-1.935,1.853Z" transform="translate(-446.292 -396.947)" fill="#e8a42b"/>
        <path id="Path_87" data-name="Path 87" d="M421.2,367.772a9.791,9.791,0,0,0-7.85-15.672,8.081,8.081,0,0,0-1.145.082,9.841,9.841,0,0,0-8.64,9.267,9.636,9.636,0,0,0,2.535,7.059,9.808,9.808,0,0,0,7.25,3.216,8.081,8.081,0,0,0,1.145-.082,9.906,9.906,0,0,0,4.007-1.39,11.305,11.305,0,0,0,1.417-1.063A15.426,15.426,0,0,0,421.2,367.772Zm-1.8-5.587a5.918,5.918,0,0,1-1.962,4.143,5.831,5.831,0,0,1-3.3,1.5,6,6,0,0,1-4.742-10.384,5.831,5.831,0,0,1,3.3-1.5,6.2,6.2,0,0,1,.709-.055,6.008,6.008,0,0,1,4.443,1.962A6.082,6.082,0,0,1,419.4,362.184Z" transform="translate(-403.55 -352.1)" fill="#e8a42b"/>
      </g>
      <g id="Group_86" data-name="Group 86" transform="translate(48.378 123.794)">
        <path id="Path_88" data-name="Path 88" d="M555.432,743.221a.2.2,0,0,0,.164.055.1.1,0,0,0,.082-.027.205.205,0,0,0,.136-.191v-8.64a.234.234,0,0,0-.218-.218,8.818,8.818,0,0,0-6.16,2.508.214.214,0,0,0,0,.3Z" transform="translate(-546.357 -734.2)" fill="#e8a42b"/>
        <path id="Path_89" data-name="Path 89" d="M547.376,758.305a.292.292,0,0,0-.055-.164l-6-6.187a.23.23,0,0,0-.164-.055.386.386,0,0,0-.164.055,8.832,8.832,0,0,0-1.063,11.474.236.236,0,0,0,.164.082.246.246,0,0,0,.136-.027l7.032-4.988C547.321,758.414,547.376,758.359,547.376,758.305Zm-6.814,3.707a6.9,6.9,0,0,1,.79-8.667l4.633,4.8Z" transform="translate(-538.3 -747.076)" fill="#e8a42b"/>
        <path id="Path_90" data-name="Path 90" d="M567.006,752.694a8.764,8.764,0,0,0-.082-1.172,2.388,2.388,0,0,1-.055-.436c-.055-.3-.136-.6-.218-.9-.027-.136-.082-.245-.109-.382a4.022,4.022,0,0,0-.327-.79l-.164-.327c-.136-.245-.273-.491-.409-.709-.054-.109-.136-.191-.191-.3a6.981,6.981,0,0,0-.545-.709,1.916,1.916,0,0,1-.218-.273c-.164-.191-.354-.382-.545-.572a2.455,2.455,0,0,0-.273-.245c-.191-.164-.409-.327-.627-.491a1.831,1.831,0,0,0-.3-.191,4.731,4.731,0,0,0-.709-.409l-.327-.164a8.421,8.421,0,0,0-.872-.382c-.109-.055-.245-.082-.382-.136-.3-.082-.6-.163-.9-.218l-.409-.082c-.327-.055-.681-.082-1.008-.109h-.354a.373.373,0,0,0-.382.382V752.5l-6.868,4.879a.4.4,0,0,0-.109.545l.027.055c.136.191.3.409.491.627a2.467,2.467,0,0,1,.245.273,3.635,3.635,0,0,0,.572.545,1.067,1.067,0,0,0,.273.218c.245.218.491.382.709.545.082.055.191.109.273.164l.027.027c.245.136.463.273.709.409l.327.164c.245.109.518.218.79.327a2.015,2.015,0,0,0,.382.109c.327.082.6.164.9.218a2.384,2.384,0,0,0,.436.055,8.382,8.382,0,0,0,1.145.082h.518a10.3,10.3,0,0,0,1.281-.164,5.759,5.759,0,0,0,.654-.164,9.382,9.382,0,0,0,1.881-.763,8.73,8.73,0,0,0,1.663-1.172,11.528,11.528,0,0,0,.818-.818A8.734,8.734,0,0,0,565.916,757a9.387,9.387,0,0,0,.763-1.881l.164-.654a10.292,10.292,0,0,0,.164-1.281v-.491Z" transform="translate(-547.219 -741.111)" fill="#e8a42b"/>
      </g>
      <g id="Group_87" data-name="Group 87" transform="translate(115.695 30.281)">
        <path id="Path_91" data-name="Path 91" d="M848.925,442.531a1.329,1.329,0,0,1-1.008.572,1.3,1.3,0,0,1-1.063-.463,22.523,22.523,0,0,0-14.146-7.986c-.6-.082-1.2-.136-1.826-.191a.365.365,0,0,0-.354.218.381.381,0,0,0,.082.409,68.907,68.907,0,0,1,15.863,23.6.319.319,0,0,0,.3.218h.027a.342.342,0,0,0,.3-.164c8.2-12.292,19.215-27.773,31.4-38.348a.377.377,0,0,0,.082-.463.342.342,0,0,0-.463-.136C859.554,427.7,849.933,441.032,848.925,442.531Z" transform="translate(-818.177 -411.95)" fill="#e8a42b"/>
        <path id="Path_92" data-name="Path 92" d="M969.484,607.1,954.03,585.564a.49.49,0,0,0-.245-.164.407.407,0,0,0-.273.082c-.082.082-.191.164-.273.245-.109.082-.191.164-.3.245l-.191.164c-.136.136-.272.245-.409.382-.763.654-1.472,1.226-2.126,1.69-.627.436-1.308.9-2.153,1.39-.164.082-.3.191-.463.273l-.191.109a1.127,1.127,0,0,0-.3.191,2.4,2.4,0,0,1-.272.164.313.313,0,0,0-.164.245.379.379,0,0,0,.054.3L962.18,612.41a1.531,1.531,0,0,0,1.145.545,1.679,1.679,0,0,0,.382.027h0a6.373,6.373,0,0,0,3.38-1.2l.163-.109C969.348,610.093,970.138,607.995,969.484,607.1Zm-5.86,5.506Z" transform="translate(-902.677 -532.443)" fill="#e8a42b"/>
        <path id="Path_93" data-name="Path 93" d="M836.366,441.113a29.66,29.66,0,0,0,4.334-34.969.394.394,0,0,0-.273-.191.325.325,0,0,0-.3.109c-1.608,1.526-3.243,3.271-4.906,5.151a.392.392,0,0,0-.055.382A22.066,22.066,0,0,1,815.161,442.8h-.055c-.845,0-1.69-.055-2.535-.136a22.045,22.045,0,0,1-10.3-39.847,21.9,21.9,0,0,1,12.755-4.116h.055c.845,0,1.69.055,2.535.136a22.233,22.233,0,0,1,13.355,6.6.372.372,0,0,0,.463.055,55.763,55.763,0,0,1,5.942-3.407.347.347,0,0,0,.191-.245.308.308,0,0,0-.082-.3A29.53,29.53,0,0,0,818.3,391.291a28.243,28.243,0,0,0-3.407-.191h-.082a29.628,29.628,0,0,0-3.271,59.062,28.548,28.548,0,0,0,3.407.191h.082a28.978,28.978,0,0,0,12.537-2.835,29.574,29.574,0,0,0,4.606-2.7A35.549,35.549,0,0,0,836.366,441.113Z" transform="translate(-785.285 -391.1)" fill="#e8a42b"/>
      </g>
      <path id="Path_94" data-name="Path 94" d="M1220.865,675.229a26.765,26.765,0,1,1,26.765-26.765A26.794,26.794,0,0,1,1220.865,675.229Zm0-48.269a21.5,21.5,0,1,0,21.5,21.5A21.531,21.531,0,0,0,1220.865,626.96Z" transform="translate(-966.982 -528.569)" fill="#d3d3d3"/>
      <path id="Path_95" data-name="Path 95" d="M1374.286,322.573a21.286,21.286,0,1,1,21.286-21.286A21.3,21.3,0,0,1,1374.286,322.573Zm0-37.313a16.026,16.026,0,1,0,16.026,16.026A16.052,16.052,0,0,0,1374.286,285.26Z" transform="translate(-1082.573 -280)" fill="#d41953"/>
      <path id="Path_96" data-name="Path 96" d="M385.412,360.623a24.612,24.612,0,1,1,24.612-24.612A24.636,24.636,0,0,1,385.412,360.623Zm0-43.963a19.351,19.351,0,1,0,19.351,19.351A19.373,19.373,0,0,0,385.412,316.66Z" transform="translate(-360.8 -302.842)" fill="#d3d3d3"/>
      <path id="Path_97" data-name="Path 97" d="M527.425,745.25a18.125,18.125,0,1,1,18.125-18.125A18.134,18.134,0,0,1,527.425,745.25Zm0-31.044A12.892,12.892,0,1,0,540.317,727.1,12.9,12.9,0,0,0,527.425,714.206Z" transform="translate(-468.826 -592.075)" fill="#c21271"/>
      <path id="Path_98" data-name="Path 98" d="M630.912,606.525a8.912,8.912,0,1,1,8.912-8.912A8.933,8.933,0,0,1,630.912,606.525Zm0-12.592a3.68,3.68,0,1,0,3.68,3.679A3.681,3.681,0,0,0,630.912,593.933Z" transform="translate(-550.809 -504.563)" fill="#d3d3d3"/>
      <circle id="Ellipse_8" data-name="Ellipse 8" cx="4.988" cy="4.988" r="4.988" transform="translate(3.109 74.502) rotate(-44.068)" fill="#ff1493"/>
      <circle id="Ellipse_9" data-name="Ellipse 9" cx="4.988" cy="4.988" r="4.988" transform="matrix(0.973, -0.232, 0.232, 0.973, 142.148, 131.34)" fill="#c21271"/>
      <circle id="Ellipse_10" data-name="Ellipse 10" cx="4.988" cy="4.988" r="4.988" transform="translate(270.427 65.522)" fill="#d3d3d3"/>
      <circle id="Ellipse_11" data-name="Ellipse 11" cx="4.988" cy="4.988" r="4.988" transform="translate(54.215 102.638) rotate(-45)" fill="#d3d3d3"/>
      <path id="Path_99" data-name="Path 99" d="M1002.813,783.725a8.912,8.912,0,1,1,8.912-8.912A8.933,8.933,0,0,1,1002.813,783.725Zm0-12.619a3.679,3.679,0,1,0,3.679,3.679A3.681,3.681,0,0,0,1002.813,771.106Z" transform="translate(-821.347 -633.466)" fill="#d3d3d3"/>
      <rect id="Rectangle_23" data-name="Rectangle 23" width="5.26" height="35.623" transform="translate(201.359 91.649) rotate(-59.66)" fill="#d3d3d3"/>
      <path id="Path_109" data-name="Path 109" d="M0,0H74.761V5.26H0Z" transform="translate(201.234 50.096) rotate(-18.288)" fill="#d41953"/>
      <rect id="Rectangle_25" data-name="Rectangle 25" width="5.26" height="58.981" transform="translate(45.207 41.031) rotate(-73.297)" fill="#d3d3d3"/>
      <rect id="Rectangle_26" data-name="Rectangle 26" width="17.334" height="5.26" transform="translate(84.953 87.267) rotate(-12.186)" fill="#d3d3d3"/>
      <rect id="Rectangle_27" data-name="Rectangle 27" width="46.661" height="5.26" transform="translate(70.892 125.162) rotate(-28.874)" fill="#c21271"/>
      <rect id="Rectangle_28" data-name="Rectangle 28" width="5.26" height="16.68" transform="translate(169.745 120.989) rotate(-24.784)" fill="#d3d3d3"/>
      <path id="Path_100" data-name="Path 100" d="M1412.394,322.739a.724.724,0,0,0-.572-.709l-2.562-.572,1.417-2.208a.705.705,0,0,0-.109-.9l-3.325-3.325a.745.745,0,0,0-.9-.109l-2.208,1.417-.572-2.562a.73.73,0,0,0-.709-.572h-4.715a.753.753,0,0,0-.709.572l-.572,2.562-2.208-1.417a.709.709,0,0,0-.9.109l-3.325,3.325a.741.741,0,0,0-.109.9l1.417,2.208-2.562.572a.73.73,0,0,0-.572.709v4.715a.724.724,0,0,0,.572.709l2.562.572-1.417,2.208a.705.705,0,0,0,.109.9l3.325,3.325a.745.745,0,0,0,.9.109l2.208-1.417.572,2.562a.753.753,0,0,0,.709.572h4.715a.729.729,0,0,0,.709-.572l.572-2.562,2.208,1.417a.745.745,0,0,0,.9-.109l3.325-3.325a.741.741,0,0,0,.109-.9l-1.417-2.208,2.562-.572a.729.729,0,0,0,.572-.709Zm-11.883,7.632h-.082a4.934,4.934,0,0,1,0-9.866h.109a4.933,4.933,0,1,1-.027,9.866Z" transform="translate(-1108.47 -304.151)" fill="#e8a42b"/>
      <path id="Path_101" data-name="Path 101" d="M1050.7,408.931l5.914-.409a56,56,0,0,0-22.4-35.923l-3.107,5.042A50.043,50.043,0,0,1,1050.7,408.931Z" transform="translate(-848.408 -347.362)" fill="#c21271"/>
      <path id="Path_102" data-name="Path 102" d="M836.716,339.714a49.659,49.659,0,0,1,29.518,9.676l3.107-5.042a55.685,55.685,0,0,0-64.84-.273l3.816,4.552A49.483,49.483,0,0,1,836.716,339.714Z" transform="translate(-683.568 -319.137)" fill="#d3d3d3"/>
      <path id="Path_103" data-name="Path 103" d="M768.352,376.052l-3.816-4.552A56.234,56.234,0,0,0,749.6,387.226l5.124,2.971A50.277,50.277,0,0,1,768.352,376.052Z" transform="translate(-643.631 -346.561)" fill="#d3d3d3"/>
      <path id="Path_104" data-name="Path 104" d="M828.7,449.7l-5.914.409a50.957,50.957,0,0,1,.79,8.94,49.932,49.932,0,1,1-91.987-26.874l-5.124-2.971A55.839,55.839,0,1,0,828.7,449.7Z" transform="translate(-620.499 -388.535)" fill="#d41953"/>
      <g id="Group_88" data-name="Group 88" transform="translate(238.184 104.497)">
        <path id="Path_105" data-name="Path 105" d="M1247.3,686.9h-4.988a1.611,1.611,0,0,0-1.608,1.608v15.563a1.611,1.611,0,0,0,1.608,1.608h4.988a1.611,1.611,0,0,0,1.608-1.608V688.508a1.629,1.629,0,0,0-1.608-1.608Z" transform="translate(-1239.065 -680.495)" fill="#e8a42b"/>
        <path id="Path_106" data-name="Path 106" d="M1282.5,710.4h-4.988a1.611,1.611,0,0,0-1.608,1.608v9.158a1.611,1.611,0,0,0,1.608,1.608h4.988a1.611,1.611,0,0,0,1.608-1.608v-9.158a1.629,1.629,0,0,0-1.608-1.608Z" transform="translate(-1264.671 -697.59)" fill="#e8a42b"/>
        <path id="Path_107" data-name="Path 107" d="M1317.7,663.4h-4.988a1.611,1.611,0,0,0-1.608,1.608v21.968a1.611,1.611,0,0,0,1.608,1.608h4.988a1.611,1.611,0,0,0,1.608-1.608V665.008a1.629,1.629,0,0,0-1.608-1.608Z" transform="translate(-1290.277 -663.4)" fill="#e8a42b"/>
        <path id="Path_108" data-name="Path 108" d="M1265.5,761.063h0a.756.756,0,0,0-.736-.763h-29.327a.733.733,0,0,0-.736.736v.027a.733.733,0,0,0,.736.736h29.327A.733.733,0,0,0,1265.5,761.063Z" transform="translate(-1234.7 -733.89)" fill="#e8a42b"/>
      </g>
    </g>
  </g>
</svg>
